<svg xmlns="http://www.w3.org/2000/svg" viewBox="0 0 409.67 351.76"><g id="Layer_2" data-name="Layer 2"><g id="Layer_1-2" data-name="Layer 1"><path style="fill:#115AA0;" d="M138.82,91.4l.45,1.1a5.44,5.44,0,0,0-1.13.63c-1.59,1.51-2.24,1.34-1.4,3.79.65,1.92.66,4,1.15,6a31.31,31.31,0,0,0,1.49,3.74c.41,1,.84,2.1,1.15,3.19s.1,2.3.69,3c1.14,1.32,1.39,3,2.2,4.4a12,12,0,0,1,.64,1.57,3.9,3.9,0,0,0,.52,1.23,11.37,11.37,0,0,1,2,3.45,18.35,18.35,0,0,0,2.4,4.1,25.78,25.78,0,0,1,2.8,4.89,24,24,0,0,0,2.2,3c.66,1,1.2,2,1.84,3,1.49,2.3,3.2,4.47,4.46,6.89.94,1.82,3,2.86,3.24,5.11a1.06,1.06,0,0,0,.47.64,13.19,13.19,0,0,1,4.63,5.12,2.05,2.05,0,0,0,.55.59,21.38,21.38,0,0,1,4.74,5.67,6.38,6.38,0,0,0,1.24,1.25c.49.46,1.3.82,1.45,1.37.54,2,2.19,2.82,3.71,3.82a5.23,5.23,0,0,1,1,1.06c1.51,1.81,3,3.64,4.53,5.42a6.41,6.41,0,0,0,1.34.9c1.92,1.3,3.11,3.29,4.66,4.95.93,1,1.92,2,2.88,2.94a6.67,6.67,0,0,1,.72.79c.8,1.14,1.62,2.26,2.35,3.43.89,1.44,1.74,2.9,2.52,4.4,1,1.84,1.81,3.76,2.82,5.58.76,1.38,0,2.61-.21,3.86a22.51,22.51,0,0,1-3.91,9.57c-1.21,1.7-2.09,3.63-3.18,5.41a4.88,4.88,0,0,1-1.17,1.14c-1.32,1.09-2.72,2.09-4,3.27a16.46,16.46,0,0,1-4.09,2.47c-1.5.76-2.25,2.63-4.1,3-.3,0-.58.25-.88.29-2.95.44-5.39,2.06-7.93,3.46a4.82,4.82,0,0,0-.93.93c-.35.34-.65.82-1.06,1-2.51.94-5.05,1.77-7.57,2.68s-4.72,1.82-7.12,2.62c-1.24.41-2.56.53-3.83.84-1.6.39-3.19.83-4.77,1.28-.85.25-1.66.63-2.52.84-2.29.57-4.58,1.15-6.89,1.6-2.72.54-5.46.94-8.19,1.43-2.48.44-4.92,1.1-7.41,1.34-3.2.32-6.42.32-9.63.44-1.68.07-3.36.14-5,.11-2.49,0-5-.14-7.47-.25-1.8-.07-3.6-.17-5.4-.32-2.44-.2-4.88-.43-7.32-.71-2.86-.34-5.72-.71-8.56-1.15-.57-.08-1.08-.54-1.65-.56l-1.74-.38a3.29,3.29,0,0,0-.81-.11A7.13,7.13,0,0,1,70.39,241a.67.67,0,0,0-.39-.12c-3.77-.22-7.11-2-10.66-3a68.56,68.56,0,0,1-6.9-2.51c-1.09-.44-2-1.2-3.12-1.69-.85-.38-1.8-.51-2.67-.85-.41-.16-.69-.61-1.09-.8-1.91-.92-3.81-1.85-5.77-2.66a19.47,19.47,0,0,1-7.18-4.83c-.44-.49-1.17-.7-1.68-1.14-1.49-1.28-2.93-2.62-4.41-3.93a7.71,7.71,0,0,0-.93-.65c-.3-.2-.7-.31-.91-.57-.88-1.08-1.7-2.19-2.54-3.29a26.2,26.2,0,0,0-2.61-3.36c-1.23-1.17-1.83-2.75-3.16-3.89-1.13-1-1.69-2.67-2.35-4.11-1.12-2.43-1.79-5.14-3.26-7.32-1.67-2.5-.71-5.33-1.75-7.83-.42-1-.43-2.08-1.22-3.07-.55-.69-.26-2.09-.25-3.16a11.11,11.11,0,0,1,.41-2l-.35-.28c.3-.8.62-1.53.82-2.28,0-.15-.35-.42-.37-.44A31.89,31.89,0,0,0,9,173.93c.31-1.69.28-3.46.75-5.09,1-3.45,2.06-6.89,4.62-9.64.76-.81.91-2.17,1.63-3,2.19-2.7,4.53-5.29,6.8-7.93.85-1,1.59-2.09,2.51-3,1.24-1.23,2.61-2.33,3.93-3.47,1.83-1.58,3.62-3.2,5.52-4.7,1.52-1.2,3.27-2.13,4.75-3.38,1.29-1.08,3-1.46,4-3,.5-.77,1.69-1.16,2.63-1.59a31.06,31.06,0,0,0,5.42-3.59,45.74,45.74,0,0,1,9.08-4.92,53.83,53.83,0,0,0,5.43-3.06c3.18-1.76,6.33-3.57,9.56-5.2,3.06-1.54,6.2-2.89,9.32-4.31q5.91-2.7,11.85-5.38c1.28-.57,2.58-1.09,3.86-1.65a2.26,2.26,0,0,0,.9-.58c1.05-1.34,2.06-2.71,3.06-4.09,1.1-1.53,2.25-3,3.23-4.63s2.4-2.65,2.74-4.49a.81.81,0,0,1,.16-.38,19.21,19.21,0,0,0,3.34-4.32c.15-.26.57-.36.72-.62,1.07-1.82,2-3.71,3.17-5.49a29.77,29.77,0,0,1,2.49-3c.27-.31.79-.55.83-.87a9.75,9.75,0,0,1,2.44-4.64c.41-.52.73-1.11,1.13-1.65,1.19-1.63,2.41-3.25,3.61-4.88.71-1,1.32-2,2.11-2.86,1.5-1.65,1.78-3.71,2.28-5.73.54-2.22,1.29-4.38,1.88-6.59.49-1.84.81-3.71,1.3-5.55.71-2.67,1.43-5.35,2.3-8,.35-1.06,1.25-1.93,1.66-3,.51-1.29.75-2.7,1.18-4,.21-.62.65-1.16.9-1.78.37-.91.59-1.88,1-2.77.72-1.62,1.52-3.2,2.28-4.8.6-1.25,1.22-2.48,1.81-3.74s1.2-2.62,1.78-3.94a29.66,29.66,0,0,1,2.28-5C152.49,1.73,154-.08,156.59,0c1.18.05,2.37-.1,3.52.05,2.8.38,4.26,2.34,4.61,5.26.26,2.22-.6,4.13-1.05,6.16a5.68,5.68,0,0,1-.19.93c-.71,1.81-1.44,3.61-2.17,5.41-.59,1.48-1.13,3-1.81,4.43-1,2-2,4-3.05,6a18.82,18.82,0,0,0-1.06,2,23.2,23.2,0,0,1-3.24,5.49c-1.3,1.79-2.07,4-3.41,5.75-1,1.31-1.42,3-2.39,4.07-1.89,2-2.46,4.72-4.12,6.82A12.62,12.62,0,0,0,141,55c-.25.54-.41,1.29-.84,1.53-2.09,1.14-1.88,3.26-2.31,5.09s-.77,3.41-1.07,5.13-.58,3.49-.74,5.25c-.23,2.33-.35,4.66-.48,7,0,.4.15.81.15,1.21a11.75,11.75,0,0,1-.08,2.52c-.48,2.2.55,3.55,2.74,3.18a37.85,37.85,0,0,0,5.91-1.57c3-1.06,6-2.41,9-3.41,3.74-1.22,7.57-2.15,11.32-3.34,1.41-.45,2.67-1.38,4.06-1.9,1.05-.39,2.24-.38,3.32-.7,2.16-.64,4.29-1.4,6.44-2.08.47-.15,1-.12,1.46-.27a5.85,5.85,0,0,0,2.31-.93,3.26,3.26,0,0,1,3-1.08c1.59.32,2.87-.52,4.28-.85a48.68,48.68,0,0,0,4.88-1.43c3.11-1.07,6.24-2.11,9.28-3.37a19.64,19.64,0,0,1,4.43-1.32,56.67,56.67,0,0,0,6.57-1.47c2.94-.82,5.83-1.82,8.76-2.67s6.17-1.63,9.22-2.56c1.76-.54,3.41-1.46,5.19-2,2.28-.64,4.63-1,6.95-1.5.44-.09.88-.2,1.31-.33a28.5,28.5,0,0,0,5.14-1.63,17.11,17.11,0,0,1,4.92-1.48,13.8,13.8,0,0,0,2.73-.88c1.52-.63,3-1.45,4.52-2,1.35-.46,2.82-.55,4.19-1,2-.6,4-1.33,6-2a7.39,7.39,0,0,1,.88-.36c2-.35,4-.69,6-1a10.69,10.69,0,0,1,2.19-.11c.88,0,1.75.26,2.16-.87.06-.15.45-.23.69-.26,2.85-.38,5.7-.8,8.56-1.08,1.66-.17,3.33-.09,5-.13.13,0,.31.08.39,0,2.56-1.83,5.55-1.21,8.38-1.57s5.86-1.09,8.8-1.55c1.1-.18,2.27.07,3.38-.07,2.87-.34,5.71-.84,8.58-1.16a13.1,13.1,0,0,1,2.69.29,2.42,2.42,0,0,0,1.2,0,6.4,6.4,0,0,1,5.31-.28.17.17,0,0,0,.14,0c2.65-1,5.3.14,8,0,3.36-.14,6.69-.75,10.12.15,2.2.58,4.65.21,7,.32a14.85,14.85,0,0,1,2.18.38c1,.2,2,.4,3,.63a36.2,36.2,0,0,0,5.24,1.24c2.89.22,4.87,2.34,7.43,3.1,2.83.84,4.47,2.89,6.08,5.06.75,1,.5,3.54-.26,4.62-1.16,1.66-2.25,3.36-3.39,5a12.56,12.56,0,0,1-4.54,4A54.19,54.19,0,0,0,372.59,65c-.88.66-3,.71-3.78-.09s-.16-2.7,1.18-3.51c.93-.56,1.79-1.24,2.69-1.85,1.19-.81,2.41-1.57,3.56-2.42a7.64,7.64,0,0,0,1.16-1.36c1.19-1.44,2.47-2.82,3.54-4.34,1.25-1.77.32-4.39-2.08-5.29-4.18-1.58-8.25-3.6-12.82-4-1.17-.1-2.31-.48-3.47-.68a4.27,4.27,0,0,0-1.47,0,3.57,3.57,0,0,1-2.53-.4,10.9,10.9,0,0,0-4-.56c-2.54-.16-5.08-.25-7.62-.36-3.21-.14-6.43-.38-9.64-.34-2.2,0-4.39.55-6.59.69-2.47.15-5,0-7.44.19a22.67,22.67,0,0,0-2.67.74,2.86,2.86,0,0,1-1.89-.1c-1.32-.89-2.31-.22-3.52.25a10.77,10.77,0,0,1-4.56,1,11.17,11.17,0,0,0-4.29.67,24,24,0,0,1-3.56.78c-2.06.28-4.13.47-6.2.7-2.23.24-4.47.39-6.68.75-1.52.24-3,.77-4.47,1.16-1.32.34-2.65.66-4,1-.22.06-.49.18-.67.11-2.23-.95-3.66.8-5.4,1.54a26.19,26.19,0,0,1-3.34,1.12,16.77,16.77,0,0,1-4.19.89c-1.84,0-3.07,1.27-4.67,1.71-2.07.57-4.16,1.08-6.23,1.69-1.86.54-3.68,1.66-5.54,1.68-3.16,0-5.39,2.43-8.37,2.73a9.93,9.93,0,0,0-1.27.48,30.86,30.86,0,0,1-3.53.88c-2.18.32-4.4.44-6.57.84-.48.09-1.26,1.18-1.13,1.49.47,1.14-.45,1.47-.89,2a3.16,3.16,0,0,1-3.19,1.27c-.29,0-.69-.13-.82-.34-.88-1.41-2.15-1-3.29-.66-3,.77-6,1.62-9,2.48-4,1.13-7.94,2.19-11.85,3.47s-7.69,2.86-11.6,4.12a45.93,45.93,0,0,1-5.77,1.11c-.05,0-.1,0-.14,0-1.67.66-3.35,1.33-5,2a7.65,7.65,0,0,1-1.17.27c-.39.09-1,0-1.16.26-1.39,1.78-3.58,1.47-5.39,2.09-2.83,1-5.74,1.7-8.58,2.62q-5.33,1.74-10.6,3.64c-2,.7-3.87,1.57-5.83,2.31s-4.12,1.47-6.2,2.16C139.76,91.69,139.42,91.51,138.82,91.4ZM96.36,109.49c-1.27.49-2.27.8-3.21,1.23-3.67,1.7-7.32,3.46-11,5.15-.89.42-1.9.59-2.77,1.06-2.16,1.15-4.14,2.8-6.43,3.52-2.59.83-4.35,2.86-6.84,3.81a66.27,66.27,0,0,0-8.16,4.3A39,39,0,0,0,54,130.91c-2.35,1.65-4.59,3.45-6.94,5.12-1.15.82-2.53,1.35-3.64,2.23-2.76,2.19-5.45,4.48-8.13,6.78a64,64,0,0,0-5,4.58c-1.53,1.62-2.74,3.53-4.26,5.15A22.92,22.92,0,0,0,21.78,160c-.75,1.5-1.59,3-2.41,4.43s-1.68,2.92-2.53,4.38c-.09.15-.31.27-.32.41-.12,1.43-.21,2.87-.3,4.3-.16,2.75-.26,5.51-.51,8.26a7.18,7.18,0,0,0,1.86,6,4.29,4.29,0,0,0-.22,4.16,33.28,33.28,0,0,1,1.18,3.3c.22.79-.05,1.89.4,2.42.87,1,1,2.35,2.1,3.4,1.34,1.28,1.73,3.58,3,5.2.82,1.07,1.53,2.22,2.4,3.25.68.8,1.53,1.47,2.27,2.22a17,17,0,0,0,2.05,2.1c.91.63,1.9,1,1.95,2.38a2.05,2.05,0,0,0,.9,1.31c2.72,1.78,4.87,4.36,8,5.57.52.2.87.79,1.32,1.17a8.38,8.38,0,0,0,1.4,1.07c1.9,1,3.85,1.89,5.75,2.9,1.58.83,3.08,1.84,4.69,2.62,1.37.68,2.85,1.14,4.29,1.69.92.35,1.82.75,2.76,1,.74.23,1.54.24,2.26.51,2.7,1,5.36,2.07,8.06,3.08a12.65,12.65,0,0,0,2.13.48c2.35.45,4.71.86,7.06,1.33,1.26.24,2.48.64,3.73.84.79.13,1.62-.07,2.41.05,3,.45,5.9,1.19,8.88,1.41,3.85.29,7.73.19,11.6.25a7.38,7.38,0,0,0,2.25,0,10.9,10.9,0,0,1,5.91-.26,5.89,5.89,0,0,0,2.1-.21c1-.16,1.94-.41,2.91-.53,1.81-.23,3.63-.4,5.45-.61.54-.06,1.07-.22,1.6-.26,2.22-.16,4.45-.12,6.63-.47,2.4-.38,4.75-1.09,7.11-1.67,1-.23,2-.43,2.91-.73,1.86-.58,3.68-1.28,5.55-1.82,2.55-.73,5.15-1.25,7.67-2.05a39.65,39.65,0,0,0,4.69-2c3.44-1.6,6.91-3.13,10.27-4.88a43.54,43.54,0,0,0,9.24-6.25c1.25-1.13,2.71-2.05,3.86-3.27,2.19-2.32,4.28-4.74,6.29-7.21.71-.89.9-2.22,1.65-3.06,1.91-2.12,2.21-4.77,2.17-7.29a9.34,9.34,0,0,0-3-7.09,5.21,5.21,0,0,1-.67-1,24.44,24.44,0,0,0-2.36-3.22c-1.33-1.33-2.82-2.44-3.56-4.31a5.27,5.27,0,0,0-1.93-2.56c-1.78-1-3.46-2-4.26-4.07a.76.76,0,0,0-.33-.41c-2.36-1-3.74-3-5.43-4.75-1.17-1.17-2.1-2.58-3.21-3.83-1.77-2-3.6-3.92-5.41-5.88-1.56-1.7-3.14-3.39-4.69-5.11a29.39,29.39,0,0,1-2.15-2.58c-1-1.37-1.83-2.82-2.79-4.2-.75-1.06-1.59-2.05-2.36-3.1-1.05-1.45-2.08-2.92-3.11-4.39-.7-1-1.42-2-2-3-1.29-2.15-2.52-4.34-3.8-6.5-.23-.38-.64-.66-.88-1-1.12-1.73-2.26-3.45-3.29-5.24-.48-.85-.46-2.25-1.14-2.69-1-.66-1-1.62-1.45-2.46-.31-.6-.58-1.23-.9-1.83a20.9,20.9,0,0,1-1.44-2.67c-.81-2.32-1.2-4.84-2.31-7a19,19,0,0,1-1.58-5.13,35,35,0,0,0-3.37-8.84c-.77.3-1.37.59-2,.77a26.7,26.7,0,0,0-3,.76c-1.44.61-2.76,1.5-4.21,2.1-2,.83-4.12,1.41-6.11,2.29a37.79,37.79,0,0,0-5.12,2.77c-.81.5-1.85,1.29-2,2.08a5,5,0,0,1-1.81,3.07c-.06,1.15,0,2.59-.66,3.24a12.73,12.73,0,0,1-4.14,2.32c-1.44.56-3-.85-3-2.4C96.67,111.94,96.48,110.78,96.36,109.49Zm33.19-41.22c-1.26.33-1.49,1.47-1.88,2.48a19.42,19.42,0,0,1-1.27,3.12c-.77,1.24-1.77,2.34-2.66,3.51-.44.59-.83,1.22-1.28,1.8-.91,1.19-1.47,2.59-2.76,3.59-.75.58-.69,2.09-1.27,3A32.65,32.65,0,0,1,116,88.86a14.3,14.3,0,0,0-1.21,1.78c-.66,1.14-1.25,2.32-1.93,3.45a2.35,2.35,0,0,1-.86.59,2.43,2.43,0,0,0-.92,3.06c1.46-1.34,3.93-.39,5-2.5a.74.74,0,0,1,.63-.18c1.45.33,2.41-.4,3.29-1.4.17-.2.4-.46.62-.47,2.47-.19,4.39-1.75,6.6-2.57s2.55-1.33,2.51-3.69.06-4.75-.18-7.1,1.13-4.57.11-6.89c-.13-.29.11-.72.13-1.08C129.85,70.71,130.68,69.54,129.55,68.27Zm18-41.17.35.23c-1.39.68-2,4.42-.81,5.93a11.93,11.93,0,0,0,1.4-1.75c1.05-2,2-4,3-6,.29-.58.42-1.24.75-1.78,1.11-1.86,2.29-3.67,3.43-5.51a3.16,3.16,0,0,0,.17-.64c.51-1.62,1-3.24,1.54-4.86.41-1.32.79-2.64,1.2-4-1.05-.14-2.11.45-2.09-1.41-1.27,1.8-2.33,3.2-3.25,4.69a5.21,5.21,0,0,0-.91,2.46,2.73,2.73,0,0,1-1.18,2.25A3.74,3.74,0,0,0,149.36,20a5.71,5.71,0,0,1-1.53,4.6c-.3.31-.11,1.11-.14,1.69l.23,0Z"/><path style="fill:#115AA0;" d="M268.75,103.28a64.11,64.11,0,0,0,8-2c2-.78,4.13-.76,6-1.5,2.65-1,5.59-1.19,7.9-3.28,1.26-1.14,3.23-1.5,4.9-2.14,1.3-.5,2.69-.79,3.95-1.36,1.84-.84,3.59-1.86,5.39-2.77a12.19,12.19,0,0,1,1.65-.63c3.51-1.21,7.07-2.32,10.53-3.66,2.78-1.08,5.42-2.51,8.17-3.66,2-.84,4.15-1.35,6.12-2.26s4.49-1,6.55-2.27a75,75,0,0,1,7.91-4c2.62-1.25,5.26-2.44,7.9-3.63a55.77,55.77,0,0,1,6.53-2.8,7.07,7.07,0,0,1,3.59.4c1,.27.75,1.25.64,2a1.34,1.34,0,0,1-1.06,1.34,21.17,21.17,0,0,0-6.71,2.89c-1.87,1.32-4.2,2-6.33,2.92-.16.07-.41,0-.49.17-1.66,2.33-4.37,2.86-6.75,3.91-1.68.74-3.48,1.18-5.17,1.87a30.86,30.86,0,0,0-3,1.65,1.12,1.12,0,0,1-.52.18A7,7,0,0,0,329,87.29a1.82,1.82,0,0,1-1,.37,73.27,73.27,0,0,0-7.26,1.6c-2.25.74-4.32,2-6.5,2.95a26.19,26.19,0,0,1-3,1,11.61,11.61,0,0,0-1.2.26c-.93.39-1.82,1.16-2.75,1.2-1.55.08-2.22,1.25-3.24,2a4,4,0,0,1-1,.65c-2.34.71-4.69,1.36-7,2a5.83,5.83,0,0,0-1.13.46c-1.43.78-3.11,1.06-4.47,1.69-2.1,1-4.83.53-6.42,2.66-.1.14-.29.32-.42.31-1.9-.21-3.21,1-4.72,1.84a4.39,4.39,0,0,1-1.82.53c-1.84,0-3.26,1-4.83,1.79-1.8.89-3.91,1.13-5.78,1.93a18.49,18.49,0,0,0-3.77,2.43c-1.83,1.41-1.35,3.78-2.15,5.62-.19.43-.34.89-.52,1.39.86,1.83,2.45,2.18,4.38,2a62.57,62.57,0,0,1,6.27-.35c3.22,0,6.43.27,9.64.21,3.05-.06,6.1-.45,9.15-.59,1.45-.07,2.92.07,4.38.14,3,.13,6,.36,9.06.4,2.55,0,5.11-.2,7.66-.16,2.27,0,4.54.26,6.8.41,3.9.26,7.8.47,11.69.81,3.69.33,7.36.83,11,1.17a8.74,8.74,0,0,0,2.29-.36c.42-.07.87-.32,1.26-.24,1.44.31,2.87,1,4.28,1,.89,0,1.93,1,2.77-.13a.44.44,0,0,1,.38-.07c2.08.42,4.15.89,6.24,1.26.89.16,1.83.07,2.74.2.75.12,1.47.43,2.21.6,1.4.33,2.82.58,4.21.94,3,.78,6,1.62,9,2.4,1.76.45,3.52.87,5.29,1.23A38.14,38.14,0,0,1,393,135.12c.54.33,1.15.56,1.69.9,2,1.29,4,2.73,6.13,3.88a6.32,6.32,0,0,1,2.64,2.48,4.22,4.22,0,0,0,1.34,1.11c1.2.83,2.24,1.72,2.38,3.37a2.41,2.41,0,0,0,1,1.6c1.69,1.17,1.71,3,1.4,4.52a47.28,47.28,0,0,1-2.78,9c-.75,1.75-2.38,3.12-3.56,4.7a18.89,18.89,0,0,1-5.94,5.31c-.74.41-1.21,1.3-1.95,1.72-1.42.82-3,1.34-4.41,2.2a22.1,22.1,0,0,0-2.57,2.38,11.26,11.26,0,0,1-2.14,1.58c-1.13.61-2.67.75-3.45,1.62-2,2.2-4.79,2.68-7.05,4.2a3.93,3.93,0,0,1-3.45.86c-.44-.11-1.1.35-1.55.69-1.23.91-2.4,1.9-3.61,2.83a1.69,1.69,0,0,1-.95.46c-2.24-.11-3.73,1.39-5.49,2.39a12.68,12.68,0,0,1-5.45,2.12,3.82,3.82,0,0,0-1.64.59c-2,1.22-4,2.51-6,3.76a1.06,1.06,0,0,1-.5.2c-3.31,0-6,1.6-8.88,2.92-1.86.86-3.47,2.29-5.66,2.46a3,3,0,0,0-1.56,1c-.93.92-2.09.84-3.25,1-1.64.21-3.31.34-4.57,1.77-.43.49-1.44.43-2.13.73a24,24,0,0,0-4.22,2c-3,2-6.52,2.54-9.72,4-3,1.34-6,2.46-9,3.72-2.66,1.11-5.28,2.32-8,3.41a5.15,5.15,0,0,1-1.81.1,11.59,11.59,0,0,0-5.86,2.25,3.21,3.21,0,0,1-1.65.57c-1.87,0-3.22,1-4.66,1.94a10.74,10.74,0,0,1-2.61,1c-1.29.44-2.58.85-3.87,1.29-.77.26-1.53.52-2.28.83q-3.69,1.5-7.36,3.06c-.53.23-1,.62-1.53.86a27.17,27.17,0,0,1-2.86,1.16c-1.05.32-2.13.33-3,1.32-.52.61-1.6.75-2.45,1.06-2.25.83-4.54,1.55-6.74,2.47-1.18.49-2.17,1.42-3.32,2a43.5,43.5,0,0,1-5.15,2.23,44.68,44.68,0,0,1-4.64,1.08c-.17,0-.44.06-.49.17-.76,1.82-2.45,1.42-3.88,1.76A4.32,4.32,0,0,0,223.5,249a4,4,0,0,1-3.84,2,6.77,6.77,0,0,0-4.53,1.57,13.25,13.25,0,0,1-6.37,2.43,12.38,12.38,0,0,0-3.33,1.09,3.91,3.91,0,0,1-3.21-.09c-.93-.39-1.6-.31-2.11.89a3.29,3.29,0,0,1-3.33,2.35,1.1,1.1,0,0,0-.76.19c-2.63,2.81-6.1,4-9.65,5a20.32,20.32,0,0,0-5,2.3,21.64,21.64,0,0,1-4.3,1.5c-1.66.55-3.34,1.07-5,1.65-1.41.48-2.79,1-4.19,1.53-1.77.64-3.61,1.15-5.31,2-1.19.56-2.14,1.59-3.29,2.27a6.81,6.81,0,0,1-2.5.89c-2.74.36-4.9,1.94-7.21,3.23a3,3,0,0,1-.85.26c-.17,0-.44-.09-.52,0-1.53,1.69-3.69,1.38-5.61,1.65s-2.71,1.94-4.21,2.63c-1.89.85-3.84,1.55-5.69,2.46-1,.48-2.6.19-2.8,1.89a.39.39,0,0,1-.26.27c-2.34.34-3.85,2.71-6.65,2.37-1.32-.16-3,1.18-4.25,2.15a6.85,6.85,0,0,1-4,1.55c-.52,0-1.23.1-1.5.43-1.13,1.37-2.74,1.7-4.24,2.31-1,.43-2,1-3.06,1.43-3.31,1.48-6.83,2.53-9.78,4.77a15.73,15.73,0,0,1-2.37,1c-.86.44-1.62,1.08-2.5,1.47s-1.83.47-2.72.78c-2.17.77-4.39,1.48-6.49,2.44-1.75.8-3.32,2-5.06,2.86a17.4,17.4,0,0,1-3.09.86c-2.48.7-5,1.43-6.78,3.42a1.9,1.9,0,0,1-.63.46c-2.16,1-4.31,2-6.49,2.94-.66.28-1.4.36-2.07.59-1.09.39-2.23.3-3.08,1.63-.71,1.1-2.31,1.72-3.63,2.31-1.76.79-3.67,1.26-5.43,2.05a25.3,25.3,0,0,0-2.72,1.87c-.7.43-1.53.66-2.25,1.07-1.22.71-2.36,1.6-3.62,2.22a21,21,0,0,1-4.51,1.79,12.27,12.27,0,0,0-3.87,2.09c-.83.53-1.73,1-2.58,1.47-2.12,1.22-4.18,2.56-6.35,3.67-1.66.85-3.49,1.35-5.19,2.14a20.47,20.47,0,0,0-2.43,1.66l-4.88,3.12c-.32,1.18-.29,2.35-.86,2.94a3.43,3.43,0,0,1-4.26.45,15.16,15.16,0,0,0-1.88-.84,8.12,8.12,0,0,1-.4-2.74,6.38,6.38,0,0,1,1.41-2.85A16.65,16.65,0,0,1,6.37,341c3.31-1.64,6.49-3.6,9.9-5,2.14-.84,3.87-2.43,6-3.06,2.78-.83,4.57-3.11,7.25-4.06,2.16-.76,4-2.36,6-3.48a26.59,26.59,0,0,1,3.78-1.69A22.92,22.92,0,0,0,45,321c1.28-.91,3-1.13,4.51-1.8a12,12,0,0,0,2.12-1.56c.14-.11.19-.36.33-.42,3.55-1.39,6.36-4.27,10.27-5,1-.18,1.79-1.19,2.77-1.62,1.43-.62,3-1,4.41-1.58,1.66-.7,3.24-1.57,4.88-2.33s3.09-1.36,4.62-2.06c3.06-1.4,6.09-2.86,9.17-4.2,1.38-.61,2.89-.91,4.28-1.5,2-.86,3.91-2,6-2.74a15.78,15.78,0,0,0,4.86-2.8,6.18,6.18,0,0,1,2-.71c2.27-.71,4.61-1.25,6.8-2.17a47.28,47.28,0,0,0,4.54-2.75,14.5,14.5,0,0,1,2.13-.76,24.14,24.14,0,0,0,3.73-1.48,21.22,21.22,0,0,1,7.88-2.43c.78-.11,1.48-1,2.15-1.59a3.76,3.76,0,0,0,.7-1.1c.78-1.54,2.33-1.7,3.75-2.15,1.68-.52,3.63-.74,5-1.76,2.08-1.58,4.49-2.06,6.77-3,3-1.24,5.87-3,9-3.91a57.86,57.86,0,0,0,7.6-2.75c2.51-1.12,5-2.36,7.48-3.49a10.64,10.64,0,0,1,2-.41,27.5,27.5,0,0,0,5-1.25c1-.45,1.68-1.73,3-1.79a5.73,5.73,0,0,0,.92-.17,8,8,0,0,0,3.54-1.51,25.12,25.12,0,0,1,5-2.58c1.2-.57,2.45-1,3.69-1.56a2,2,0,0,1,.77-.2c2,.16,3.6-1,5.32-1.82a24.66,24.66,0,0,1,4.55-1.76,44.93,44.93,0,0,0,5.83-2.39c1.11-.44,2.32-.65,3.41-1.14a9.71,9.71,0,0,0,2-1.51c2.11-1.75,5-1.44,7.27-2.75a23.32,23.32,0,0,1,3.28-1.3c2.45-.9,4.94-1.69,7.32-2.73a27.44,27.44,0,0,0,5.45-3,6.38,6.38,0,0,1,3.52-1.52,11.68,11.68,0,0,0,5.31-1.8,50.31,50.31,0,0,1,6.47-2.68,31.28,31.28,0,0,1,5.73-2,7.66,7.66,0,0,0,3.35-1.4,20,20,0,0,1,5.17-2.11c2-.67,4-1.26,6.09-1.73s3.64-1.72,5.48-2.55c.93-.42,2.07-.38,3-.79,1.36-.59,2.61-1.4,3.92-2.1.23-.12.51-.14.75-.24,2.37-1,4.9-1.57,7-3.26a9.12,9.12,0,0,1,3.24-1.37,46.74,46.74,0,0,0,8.21-3.14c1.81-.92,3.71-2.11,6.06-2.15,1.51,0,3-1.21,4.51-1.63,3-.8,5.43-2.48,8.05-3.94A18.38,18.38,0,0,1,330.8,200c1.11-.33,2.23-.66,3.3-1.09,3-1.21,5.89-2.52,8.86-3.71,2.17-.88,4.67-1.24,6.49-2.57,1.56-1.14,3.45-1.07,4.85-2.18,2.28-1.81,5.28-2,7.67-3.61,1-.64,2-1.25,3-1.86.38-.24.77-.47,1.17-.67,2.19-1.09,4.41-2.1,6.56-3.25,1.29-.68,2.48-1.58,3.74-2.33a5.39,5.39,0,0,1,1.62-.69,19,19,0,0,0,5.6-2.63,7.13,7.13,0,0,1,2.4-1c2.3-.29,3.63-2.08,5.32-3.28a2.77,2.77,0,0,0,.83-1.51c.47-1.79,2.26-2.28,3.33-3.46s2.37-2.39,3.55-3.59A5.56,5.56,0,0,0,400.9,159a3.05,3.05,0,0,1,.71-1.74,5.28,5.28,0,0,0,1-4.46,3.75,3.75,0,0,1,0-.67,6.26,6.26,0,0,0-3.27-6.07c-.73-.46-1.29-1.2-2-1.66s-1.57-.64-2.28-1.08c-1.34-.82-2.61-1.76-3.94-2.59a16.76,16.76,0,0,0-1.94-.85c-.94-.41-1.85-.9-2.8-1.27-2.49-.95-5-1.93-7.52-2.74-1.93-.62-3.95-1-5.92-1.49-3.77-1-7.52-2.07-11.32-2.94a69.31,69.31,0,0,0-9.77-1c-4.73-.4-9.43-1.05-14.15-1.46-4-.36-8-.51-12.06-.81-3-.22-5.94-.56-8.91-.78-1-.07-2.11.37-3,0-2.12-.81-4.22-.57-6.36-.38a.76.76,0,0,1-.4,0c-2.53-1.17-5.19-.44-7.79-.56s-5.28-.48-7.92-.48c-4,0-8,.23-12.07.32-.95,0-1.9-.16-2.85-.14-2.89.08-5.79.21-8.68.33-3.23.13-6.49,0-9.67.5a5.69,5.69,0,0,0-3.15,2.47c-1.63,2.36-3,4.92-4.41,7.41-.24.42-.38.9-.58,1.34-.65,1.49-1.26,3-2,4.46-.32.66-.82,1.23-1.2,1.87-1.12,1.85-2.23,3.7-3.3,5.57a20.42,20.42,0,0,0-1,2.28q-1.29,3.12-2.56,6.26a14.13,14.13,0,0,1-1.31,3.13c-.46.62-1.18,1.09-1.12,1.91.12,1.52-.71,2.49-1.53,3.63-.59.84-.52,2.15-.77,3.25-.06.3-.15.81-.31.84-1.11.24-.94,1.19-1.15,1.92a2,2,0,0,1-2.33,1.61c-1-.16-2.21-1.36-2-2.28a17,17,0,0,1,1.22-2.78c.13-.31.4-.76.28-.93-1-1.44.17-2.28.76-3.37a8.65,8.65,0,0,0,1.25-3.63,7.09,7.09,0,0,1,1.77-5.2c.82-.87,1.11-2.24,1.64-3.39,1.05-2.22,2.13-4.43,3.14-6.67.46-1,.75-2.14,1.16-3.19a6.87,6.87,0,0,1,.64-1,9.89,9.89,0,0,0,1-1.74c.83-2.18,1.43-4.45,2.4-6.56.59-1.26,1.83-2.21,2.52-3.44a23.8,23.8,0,0,0,1.57-4.07c0-.14-.48-.64-.79-.69-1.42-.23-2.86-.35-4.29-.55a7.84,7.84,0,0,1-1.72-.41c-2-.74-4-1.43-5.92-2.33-.91-.42-2-.85-2.14-2.19a3.61,3.61,0,0,1,1.53-3.56,11.34,11.34,0,0,1,4.88-2.14c1.49-.2,2.84-1.32,4.3-1.9,1.86-.73,3.77-1.31,5.65-2,.75-.26,1.51-.5,2.24-.82a34.6,34.6,0,0,0,3.8-1.78,18.92,18.92,0,0,0,4-2.78c.73-.74.93-2,1.37-3,1.23-2.89,2.43-5.79,3.72-8.65.34-.77,1-1.36,1.42-2.11.82-1.64,1.56-3.31,2.28-5a7.54,7.54,0,0,0,.44-1.71c.31-1.81.5-3.65.92-5.44a3.05,3.05,0,0,1,4.47-2.19c1.19.56,2,2.84,1.47,4.29-1.81,5.11-3.62,10.23-5.47,15.33-.51,1.43-1.19,2.8-1.71,4.22A12.38,12.38,0,0,0,268.75,103.28Zm-22.27,15.56c.47.32.77.69,1.11.74a14.9,14.9,0,0,0,3.51.28,7.29,7.29,0,0,0,2.75-1c.27-.15.36-.93.25-1.35a1.3,1.3,0,0,0-1-.7A10.31,10.31,0,0,0,246.48,118.84Z"/><path style="fill:#115AA0;" d="M227.37,181.72c.14-1.11.16-1.83.33-2.53.36-1.48,1.18-2.23,2-2,1.74.56,2.68,2.17,2,3.6-.15.32-.57.53-.89.75s-.85.34-1,.64c-.38.76-.83,1.29-1.63.71A3.78,3.78,0,0,1,227.37,181.72Z"/></g></g></svg>
